<svg xmlns="http://www.w3.org/2000/svg" height="800" width="1200" viewBox="-4.993275 -1.36622 43.27505 8.19732"><path d="M8.7514 3.16247c-.0466-.58138-.3489-.92251-.96132-.92251-.56585 0-.9144.35665-.97649.92251zm.91475.21696c0 .18626-.0155.37994-.0466.53481H6.82907c.10055.46531.49601.75212 1.24002.75212.004 0 .007-.00035.01-.00035s.005-.00035.008-.00035c.0469 0 .0928-.002.13829-.004.0243-.001.049-.003.0734-.005.0194-.002.0385-.004.0575-.005.30974-.0314.6043-.11465.87453-.2413.0212-.0102.043-.0201.0635-.0307h.00035c.0547-.0275.10795-.0579.16052-.0889h.0236v.78458c-.40851.2473-.88723.38947-1.39946.38947v-.002c-.0187.00036-.037.002-.0561.002-1.40335 0-2.17064-.79834-2.17064-1.96109 0-1.24813.79058-2.06975 1.93781-2.06975s1.87607.81386 1.87607 1.94557M0 5.3872h.95356l.17815-3.34081.0388-.90699h.0155l.20179.90699.77505 3.34081h1.1938l.78281-3.34081.19368-.90699h.0155l.0388.90699.18626 3.34081h.99201L5.2401.03873H3.65895l-.71332 3.20922-.15487.81386h-.0155l-.16298-.81386L1.89931.03873H.31781zm16.41052.0776c-.89147 0-1.39559-.41099-1.39559-1.34091V2.29438H13.9453v1.94557c0 .28681.10866.40323.34114.40323.0543 0 .11606 0 .18591-.0155h.0233v.75953c-.0931.0233-.27905.0466-.4184.0466-.52705 0-.85301-.20143-.99236-.64346-.27905.43427-.72073.67451-1.27106.67451-.9846 0-1.78294-.76729-1.78294-2.02318 0-1.24037.79834-2.00766 1.78294-2.00766.48789 0 .89147.18591 1.17016.52705V.03878h.96132v1.47285h1.06963V.58912h.96132v.92251h1.03117v.78281h-1.03117v1.78294c0 .38735.19367.57362.5662.57362.1704 0 .28646-.0155.44168-.0543h.0233v.79058c-.18627.0466-.41099.0776-.5969.0776m-4.39526-.81386c.65122 0 1.01529-.50377 1.01529-1.20932 0-.6978-.36407-1.20156-1.01529-1.20156-.65899 0-1.00013.50376-1.00013 1.20156 0 .70555.34114 1.20932 1.00013 1.20932m6.37963-1.2947c0-.62794.32561-.97684.9458-.97684.1083 0 .22472.0155.33302.0469h.0155V1.5268c-.10054-.0385-.23248-.0617-.37994-.0617-.46496 0-.77505.28681-.95321.75177v-.7052h-.92251v3.87562h.96132zm3.34892 2.10856c-1.21708 0-2.03906-.88371-2.03906-2.01542 0-1.13171.82198-2.01542 2.03906-2.01542 1.20897 0 2.03094.88371 2.03094 2.01542 0 1.13171-.82197 2.01542-2.03094 2.01542m0-.82938c.68968 0 1.04634-.50377 1.04634-1.18604 0-.68227-.35666-1.18604-1.04634-1.18604-.67451 0-1.05445.50377-1.05445 1.18604 0 .68227.37994 1.18604 1.05445 1.18604m3.50591-1.41076c0-.5969.30233-.9846.86042-.9846.55033 0 .80645.36442.80645.9846v2.16253h.96097V3.18593c0-.93027-.48049-1.75189-1.52683-1.75189-.55809 0-.93027.27905-1.13982.69779v-.62018h-.92251v3.87562h.96132zm4.3254-2.65889c0 .31009-.248.57362-.57326.57362-.31009 0-.56621-.26353-.56621-.57362 0-.31009.25612-.56585.56621-.56585.32526 0 .57326.25576.57326.56585m.53517 4.82142c-.14746.031-.31786.0543-.47308.0543-.73624 0-1.13171-.3877-1.13171-1.10066V1.51163h.96908v2.75943c0 .25576.12383.37994.3877.37994.0617 0 .13935-.008.22472-.0233h.0233zm.0928-1.93781c0-1.13171.82162-2.01542 2.04646-2.01542.3489 0 .74436.0854 1.03893.248v.85267h-.0233c-.30233-.17816-.60466-.26353-.9458-.26353-.7366 0-1.13171.50377-1.13171 1.17828 0 .67451.39511 1.17828 1.13171 1.17828.34114 0 .64347-.0854.9458-.26353h.0233v.85266c-.29457.16299-.69003.24801-1.03893.24801-1.22484 0-2.04646-.88371-2.04646-2.01542" fill="#224a87"/></svg>